<?xml version="1.0" encoding="UTF-8" ?>
<!DOCTYPE svg PUBLIC "-//W3C//DTD SVG 1.1//EN" "http://www.w3.org/Graphics/SVG/1.1/DTD/svg11.dtd">
<svg width="1376pt" height="768pt" viewBox="0 0 1376 768" version="1.1" xmlns="http://www.w3.org/2000/svg">
<g id="#ffffffff">
<path fill="#ffffff" opacity="1.00" d=" M 691.18 252.17 C 707.79 236.10 731.27 229.21 753.99 229.88 C 778.15 228.36 804.76 240.06 815.03 262.99 C 823.63 281.97 822.76 303.71 818.52 323.67 C 815.77 331.46 805.11 328.14 799.01 329.21 C 788.64 328.35 777.20 331.34 767.52 326.50 C 768.84 314.00 773.21 301.03 769.55 288.57 C 767.08 282.18 762.18 276.10 755.13 274.82 C 746.42 273.50 736.26 273.10 729.07 279.11 C 717.69 286.65 713.87 300.72 711.39 313.38 C 705.00 353.17 698.24 392.91 691.66 432.68 C 689.66 445.68 686.24 458.63 687.19 471.90 C 687.88 482.23 696.15 491.51 706.58 492.48 C 719.27 494.82 732.81 488.30 738.88 476.93 C 747.14 464.14 746.26 448.23 749.94 433.95 C 750.58 431.68 751.59 428.72 754.39 428.54 C 768.22 427.48 782.16 427.56 796.02 428.09 C 799.10 428.14 801.07 431.52 800.42 434.35 C 798.35 448.59 795.79 462.84 791.49 476.60 C 783.83 498.71 768.55 518.94 747.03 529.04 C 736.73 534.52 725.04 536.47 713.55 537.48 C 694.84 538.94 674.68 536.15 659.27 524.72 C 642.84 512.81 635.73 491.65 635.97 472.02 C 635.41 457.84 638.82 444.00 641.19 430.14 C 647.53 389.80 654.32 349.54 661.41 309.33 C 665.70 288.07 674.63 266.80 691.18 252.17 Z" />
<path fill="#ffffff" opacity="1.00" d=" M 150.39 233.53 C 170.23 232.20 190.14 233.27 210.00 232.95 C 230.07 232.79 251.98 234.81 268.36 247.61 C 276.72 253.60 282.07 262.83 285.62 272.30 C 291.03 286.04 290.11 301.23 289.68 315.69 C 287.18 337.11 282.86 358.99 271.79 377.78 C 262.55 393.53 248.50 406.75 231.34 413.38 C 210.44 421.00 187.66 420.73 165.79 419.07 C 160.88 447.57 156.00 476.08 151.62 504.67 C 149.83 514.18 149.07 524.02 145.48 533.09 C 129.76 532.95 114.04 533.01 98.32 533.05 C 96.47 522.32 99.57 511.68 101.13 501.14 C 115.24 416.20 129.21 331.24 143.31 246.31 C 144.36 241.85 144.66 234.66 150.39 233.53 M 188.21 278.01 C 183.90 310.47 177.55 342.63 172.84 375.04 C 186.92 374.60 202.06 376.84 215.12 370.22 C 229.20 361.63 234.53 344.74 237.53 329.44 C 239.69 318.79 239.75 307.65 238.02 296.95 C 236.56 287.32 228.11 280.15 218.90 278.29 C 208.68 277.57 198.44 277.98 188.21 278.01 Z" />
<path fill="#ffffff" opacity="1.00" d=" M 503.22 235.23 C 505.50 233.02 509.18 233.55 511.99 233.13 C 522.33 232.66 532.70 232.59 543.05 232.98 C 545.71 233.09 549.25 234.20 549.45 237.36 C 549.39 249.54 546.33 261.44 544.46 273.42 C 541.61 289.62 539.50 305.95 536.08 322.05 C 546.91 308.48 563.31 298.89 581.03 299.14 C 593.24 298.52 605.75 304.04 612.92 314.05 C 619.03 322.39 621.33 332.85 621.79 343.01 C 622.20 353.32 622.41 363.71 620.92 373.95 C 617.87 397.36 613.60 420.57 609.80 443.86 C 606.02 464.78 602.61 486.37 592.21 505.23 C 584.92 518.15 573.91 529.60 559.71 534.71 C 550.04 537.14 539.63 539.43 529.81 536.35 C 517.04 533.29 507.02 523.48 501.45 511.87 C 499.78 517.33 498.15 522.80 496.22 528.18 C 495.49 529.93 494.69 532.06 492.63 532.58 C 479.68 533.52 466.64 533.31 453.71 532.32 C 456.09 508.91 460.51 485.76 464.43 462.57 C 475.89 389.46 489.05 316.63 500.41 243.51 C 501.11 240.80 501.09 237.38 503.22 235.23 M 550.42 343.47 C 542.52 345.33 536.05 351.13 532.20 358.12 C 528.28 364.86 527.89 372.86 526.32 380.32 C 522.11 406.95 517.65 433.55 513.08 460.13 C 511.54 467.59 511.68 475.50 514.28 482.72 C 519.16 492.72 532.86 496.00 542.03 490.02 C 549.24 484.78 554.00 476.63 556.01 468.01 C 562.21 440.41 565.58 412.29 570.60 384.47 C 572.45 374.31 572.51 363.86 571.36 353.64 C 569.64 344.61 558.52 340.73 550.42 343.47 Z" />
<path fill="#ffffff" opacity="1.00" d=" M 868.39 233.53 C 882.67 232.63 897.52 231.48 911.50 235.29 C 910.43 247.96 907.70 260.41 905.86 272.98 C 902.81 289.62 900.61 306.40 897.03 322.93 C 904.55 314.51 913.55 307.40 923.98 302.94 C 938.42 297.68 955.68 297.20 968.82 306.17 C 979.55 312.91 982.62 326.30 984.12 338.03 C 985.95 354.07 982.08 370.05 979.86 385.86 C 972.28 428.32 965.97 470.98 958.62 513.48 C 957.54 520.17 956.19 526.88 953.57 533.17 C 938.21 532.72 922.80 533.68 907.50 532.27 C 907.44 523.94 909.15 515.72 910.45 507.53 C 917.13 469.86 922.50 431.97 929.40 394.33 C 931.49 381.71 934.14 369.02 933.69 356.16 C 933.49 350.39 929.18 344.86 923.57 343.47 C 906.74 340.27 891.42 355.65 889.60 371.60 C 882.49 415.75 874.85 459.81 867.94 503.99 C 866.32 513.77 865.27 523.82 861.53 533.09 C 845.91 532.48 830.00 534.50 814.54 531.74 C 817.61 504.50 823.38 477.64 827.40 450.53 C 838.59 382.51 850.02 314.54 861.34 246.54 C 862.32 241.98 862.58 234.71 868.39 233.53 Z" />
<path fill="#ffffff" opacity="1.00" d=" M 1216.65 247.73 C 1228.35 246.21 1240.24 246.70 1252.01 247.20 C 1254.95 247.39 1257.71 248.53 1260.44 249.55 C 1258.30 267.43 1254.83 285.13 1251.82 302.88 C 1261.74 302.95 1271.70 302.59 1281.62 303.46 C 1286.37 305.28 1284.44 311.23 1283.97 314.88 C 1281.94 325.01 1281.53 335.90 1276.46 345.14 C 1266.01 345.00 1255.59 345.02 1245.17 345.02 C 1238.78 384.86 1232.02 424.63 1225.55 464.46 C 1224.29 471.45 1223.27 479.93 1228.21 485.81 C 1235.23 492.61 1246.00 489.44 1254.80 489.28 C 1255.83 490.28 1256.88 491.28 1257.95 492.27 C 1256.34 504.68 1255.13 517.19 1252.39 529.41 C 1251.71 533.57 1247.23 535.42 1243.43 535.35 C 1223.92 537.46 1201.11 538.85 1185.65 524.36 C 1172.40 511.48 1172.95 490.99 1175.04 474.01 C 1181.99 431.04 1189.52 388.17 1196.19 345.16 C 1188.53 344.92 1180.80 345.67 1173.22 344.69 C 1169.55 341.24 1172.04 335.40 1172.09 331.13 C 1173.38 323.19 1174.39 315.17 1176.57 307.41 C 1176.95 305.47 1178.62 304.13 1180.43 303.55 C 1187.95 302.80 1195.55 302.93 1203.13 302.92 C 1205.58 288.13 1207.83 273.30 1210.48 258.55 C 1211.44 254.74 1211.77 248.70 1216.65 247.73 Z" />
<path fill="#ffffff" opacity="1.00" d=" M 1069.65 301.61 C 1090.81 297.75 1114.57 297.18 1132.93 310.11 C 1150.51 322.13 1153.58 346.20 1150.69 365.82 C 1143.98 411.96 1134.75 457.72 1128.99 504.00 C 1127.68 513.64 1128.76 523.54 1126.65 533.07 C 1112.56 532.98 1098.47 532.98 1084.39 533.11 C 1082.07 526.35 1082.26 519.08 1081.64 512.06 C 1072.45 524.29 1059.52 534.89 1043.85 536.71 C 1024.27 541.23 1000.88 532.26 993.37 512.64 C 981.80 479.76 993.34 440.25 1020.52 418.49 C 1043.65 400.01 1073.17 393.38 1099.86 381.88 C 1100.64 371.30 1104.50 360.36 1101.15 349.88 C 1096.12 338.04 1079.73 339.36 1070.90 345.88 C 1062.93 352.01 1062.00 362.44 1059.11 371.30 C 1058.23 375.39 1053.07 374.55 1050.01 374.80 C 1039.03 374.59 1028.05 374.23 1017.11 373.65 C 1013.93 373.60 1011.67 370.37 1012.29 367.35 C 1014.92 351.03 1021.59 335.10 1032.78 322.78 C 1042.20 311.80 1055.69 304.82 1069.65 301.61 M 1056.00 441.00 C 1044.93 449.49 1037.17 463.38 1038.42 477.60 C 1038.88 484.18 1042.56 491.78 1049.40 493.59 C 1057.30 496.85 1065.90 492.99 1072.28 488.28 C 1079.61 483.41 1084.71 475.27 1085.60 466.49 C 1088.06 450.96 1091.34 435.56 1093.09 419.92 C 1080.68 426.87 1067.43 432.41 1056.00 441.00 Z" />
<path fill="#ffffff" opacity="1.00" d=" M 316.67 304.70 C 319.48 301.62 324.48 304.00 327.97 302.92 C 338.32 302.75 348.69 302.58 359.05 303.04 C 361.05 302.77 362.18 304.70 362.56 306.39 C 363.30 314.00 360.88 321.40 359.84 328.87 C 352.25 375.88 344.06 422.81 336.72 469.87 C 335.75 475.53 336.34 481.66 339.31 486.68 C 341.74 490.54 346.61 491.63 350.89 491.78 C 367.40 490.90 381.08 475.92 381.59 459.56 C 389.58 411.22 397.44 362.86 405.37 314.51 C 406.25 310.77 406.37 304.31 411.39 303.53 C 425.91 303.08 441.38 300.76 455.46 305.36 C 444.82 374.83 432.54 444.04 421.62 513.48 C 420.58 520.18 419.18 526.87 416.57 533.17 C 401.92 532.95 387.17 533.64 372.60 531.78 C 372.99 525.13 373.65 518.52 374.76 511.96 C 365.53 521.22 355.69 530.81 342.87 534.77 C 327.16 540.11 306.86 539.14 295.35 525.69 C 286.95 515.89 285.44 502.40 285.92 490.00 C 285.62 476.16 289.18 462.73 291.15 449.14 C 298.09 404.40 306.06 359.84 313.09 315.11 C 313.88 311.57 313.92 307.42 316.67 304.70 Z" />
</g>
</svg>
