<svg
  width="32"
  height="32"
  viewBox="0 0 886 885"
  version="1.1"
  xmlns="http://www.w3.org/2000/svg"
>
  <g>
    <path
      fill="#15b8a5"
      opacity="1.00"
      d=" M 345.69 47.81 C 356.39 46.32 367.22 46.24 378.01 46.30 C 393.91 46.20 409.83 47.24 425.55 49.56 C 432.28 51.17 439.24 51.47 445.96 53.11 C 450.58 54.70 455.56 54.91 460.12 56.73 C 463.66 58.28 467.71 57.84 471.16 59.71 C 487.25 64.38 502.84 70.79 517.96 78.03 C 524.33 81.80 531.33 84.39 537.60 88.36 C 572.37 108.53 603.00 135.44 628.63 166.33 C 637.49 177.63 645.79 189.37 653.42 201.55 C 664.20 220.85 674.84 240.53 681.21 261.78 C 684.91 271.95 687.88 282.38 690.08 292.97 C 692.40 299.49 692.55 306.47 694.36 313.11 C 692.31 313.77 690.20 314.28 688.05 314.22 C 675.01 314.26 661.97 314.07 648.94 314.29 C 647.54 314.22 645.53 314.79 644.89 313.09 C 642.04 307.82 642.42 301.57 640.07 296.12 C 630.08 257.80 611.24 221.70 585.27 191.72 C 576.40 180.97 566.31 171.33 556.01 161.97 C 548.48 155.80 541.16 149.30 532.89 144.12 C 510.94 128.48 486.37 116.64 460.90 108.08 C 457.09 107.80 453.79 105.67 450.06 105.10 C 445.91 104.48 442.08 102.64 437.94 102.05 C 432.55 101.31 427.40 99.36 421.98 98.93 C 417.78 98.45 413.60 97.80 409.40 97.36 C 397.06 95.17 384.46 96.05 372.00 95.77 C 360.61 95.43 349.34 97.15 338.10 98.63 C 330.35 98.91 322.99 101.50 315.34 102.45 C 309.82 104.46 303.96 105.23 298.47 107.34 C 296.30 108.08 293.89 107.90 291.82 108.94 C 283.93 112.59 275.56 115.05 267.70 118.77 C 252.61 125.28 238.35 133.58 224.69 142.68 C 197.12 161.51 172.21 184.63 153.08 212.10 C 132.85 240.61 118.30 273.20 110.43 307.21 C 108.48 313.44 108.15 320.04 106.39 326.32 C 103.91 347.10 101.61 368.06 103.05 389.00 C 104.35 397.93 104.86 406.94 105.97 415.89 C 108.61 428.99 111.33 442.04 115.07 454.87 C 123.77 481.31 135.16 507.04 150.81 530.16 C 159.58 544.34 170.41 557.09 181.77 569.25 C 196.11 584.41 212.14 598.01 229.67 609.36 C 239.05 615.03 248.51 620.58 258.23 625.66 C 277.78 634.94 298.18 642.53 319.23 647.61 C 323.97 648.19 328.57 649.44 333.21 650.49 C 345.47 651.63 357.64 654.01 369.99 653.88 C 380.01 653.82 390.09 654.36 400.04 652.97 C 405.71 652.35 411.33 651.30 417.04 650.99 C 422.83 650.78 428.28 648.61 434.00 647.93 C 439.06 647.39 443.69 645.03 448.76 644.45 C 465.70 639.69 482.40 633.91 498.27 626.27 C 501.05 625.27 504.08 625.55 506.98 625.56 C 517.65 626.21 528.34 625.68 539.02 626.13 C 552.85 626.53 566.68 626.25 580.51 626.71 C 580.60 627.20 580.77 628.18 580.86 628.67 C 578.46 632.43 574.27 634.24 570.85 636.86 C 548.02 654.30 522.89 668.63 496.30 679.49 C 481.33 686.07 465.57 690.56 449.76 694.62 C 442.75 695.52 436.14 698.35 429.02 698.57 C 417.53 701.08 405.76 701.60 394.07 702.50 C 376.71 704.00 359.32 702.12 342.00 700.95 C 335.61 700.56 329.40 698.91 323.04 698.26 C 316.91 697.82 311.22 695.18 305.09 694.64 C 288.54 690.44 271.96 685.92 256.33 678.92 C 224.83 665.87 195.50 647.62 169.77 625.26 C 149.37 607.30 130.20 587.68 114.76 565.21 C 105.61 552.34 97.65 538.64 90.26 524.70 C 85.38 514.46 79.57 504.56 76.33 493.64 C 70.91 479.59 66.22 465.29 62.36 450.73 C 59.38 437.58 56.70 424.37 55.05 410.96 C 54.98 405.29 54.74 399.64 53.91 394.03 C 53.08 378.05 53.20 361.99 54.88 346.08 C 54.55 336.60 56.47 327.27 57.88 317.95 C 58.26 313.35 59.37 308.86 60.51 304.41 C 63.19 288.40 68.47 272.99 73.72 257.69 C 81.16 235.70 92.54 215.32 104.46 195.48 C 111.95 183.25 121.00 172.10 129.77 160.78 C 137.70 152.37 145.25 143.59 153.74 135.73 C 166.14 124.37 178.77 113.13 192.75 103.75 C 202.68 96.84 213.03 90.53 223.56 84.59 C 240.15 76.29 256.90 68.03 274.69 62.58 C 280.34 60.88 285.73 58.14 291.68 57.65 C 297.95 55.15 304.64 54.22 311.12 52.40 C 322.58 50.43 334.05 48.34 345.69 47.81 Z"
    />
    <path
      fill="#15b8a5"
      opacity="1.00"
      d=" M 363.26 151.31 C 379.99 145.63 400.00 155.75 405.75 172.37 C 407.46 178.11 409.14 184.34 407.33 190.28 C 406.79 195.20 404.72 199.86 401.84 203.85 C 399.04 207.72 394.90 210.23 391.34 213.31 C 389.72 214.63 388.76 216.60 388.48 218.65 C 387.58 224.73 388.02 231.08 385.94 236.95 C 377.28 237.29 368.62 236.97 359.96 237.05 C 356.92 230.86 357.48 223.71 356.21 217.07 C 356.28 214.19 353.22 213.13 351.31 211.65 C 344.82 207.51 340.34 200.85 337.80 193.69 C 336.32 185.62 336.34 176.72 340.35 169.34 C 344.73 160.28 353.39 153.36 363.26 151.31 Z"
    />
    <path
      fill="#15b8a5"
      opacity="1.00"
      d=" M 290.47 213.74 C 298.59 211.76 307.07 213.57 314.78 216.35 C 321.70 219.05 327.67 224.14 331.31 230.63 C 334.95 237.60 335.39 245.78 339.39 252.61 C 341.58 256.44 344.29 259.91 346.90 263.46 C 345.31 263.60 343.71 263.71 342.12 263.78 C 344.33 268.37 348.07 271.87 351.11 275.88 C 352.55 277.58 352.11 279.91 352.20 281.96 C 352.03 287.96 352.39 293.96 352.11 299.95 C 350.73 302.21 347.47 301.82 345.18 302.36 C 335.73 303.18 326.55 306.09 317.01 305.93 C 310.06 305.86 303.03 306.30 296.14 305.31 C 292.85 303.72 288.40 303.97 286.06 300.92 C 289.16 298.53 293.08 297.60 296.31 295.41 C 296.54 294.71 297.01 293.31 297.25 292.62 C 290.89 292.37 285.19 295.59 278.98 296.32 C 267.13 297.74 254.64 298.05 243.40 293.47 C 240.20 292.54 237.31 290.84 234.26 289.55 C 234.30 289.03 234.36 287.99 234.40 287.47 C 241.27 286.82 247.64 283.95 253.59 280.59 C 256.57 278.83 259.44 276.72 261.18 273.66 C 258.48 274.19 255.90 275.14 253.40 276.26 C 241.73 280.15 229.24 281.87 216.98 280.27 C 203.53 277.83 190.23 272.35 180.50 262.48 C 178.35 260.52 176.93 257.95 175.83 255.29 C 180.81 255.00 185.84 255.62 190.79 254.88 C 202.32 253.04 213.30 248.95 224.30 245.21 C 231.59 242.09 238.76 238.67 245.70 234.79 C 260.61 227.82 274.03 217.03 290.47 213.74 Z"
    />
    <path
      fill="#15b8a5"
      opacity="1.00"
      d=" M 397.20 265.18 C 401.04 251.83 414.41 241.12 428.59 242.22 C 432.35 242.89 436.33 242.57 439.90 244.13 C 454.09 249.41 465.20 260.08 477.49 268.54 C 490.54 278.17 505.48 286.70 522.02 287.59 C 517.21 296.74 506.23 299.20 497.15 302.03 C 490.85 303.18 484.38 303.15 477.99 303.20 C 455.00 303.33 432.00 303.58 409.01 303.13 C 404.86 302.88 400.63 303.68 396.57 302.60 C 396.07 290.13 396.02 277.61 397.20 265.18 Z"
    />
    <path
      fill="#15b8a5"
      opacity="1.00"
      d=" M 360.70 244.39 C 365.79 243.89 370.89 244.65 375.99 244.37 C 379.01 244.44 382.14 243.72 385.04 244.88 C 384.93 252.59 385.12 260.29 385.66 267.98 C 385.76 278.99 385.89 289.99 386.08 301.00 C 386.27 315.33 385.32 329.65 385.48 343.98 C 384.46 362.98 385.54 382.04 384.80 401.04 C 379.47 400.11 373.87 400.26 368.82 398.12 C 366.25 397.08 363.46 396.84 360.77 396.30 C 359.77 391.94 359.68 387.46 359.81 383.01 C 359.12 356.35 359.45 329.67 359.12 303.00 C 359.50 286.33 358.45 269.57 360.48 252.99 C 360.67 250.12 360.63 247.25 360.70 244.39 Z"
    />
    <path
      fill="#15b8a5"
      opacity="1.00"
      d=" M 307.73 333.71 C 320.34 327.09 334.85 325.41 348.91 325.16 C 351.33 325.09 351.39 328.20 351.58 329.95 C 351.79 335.61 352.43 341.28 352.08 346.94 C 352.15 348.42 350.68 348.98 349.48 349.15 C 343.65 350.16 337.50 349.27 331.97 351.79 C 324.31 353.56 316.30 357.71 313.02 365.25 C 309.93 373.92 314.38 383.32 321.25 388.76 C 325.08 392.36 330.19 393.82 334.79 396.10 C 340.50 398.65 346.53 400.32 352.37 402.52 C 358.80 403.34 364.86 405.69 371.22 406.78 C 376.74 408.95 382.74 409.34 388.13 411.86 C 402.96 417.50 418.00 425.47 426.92 439.09 C 436.10 453.21 435.05 472.70 425.16 486.20 C 417.95 496.50 407.11 503.48 396.14 509.22 C 394.61 510.14 392.78 509.94 391.09 510.09 C 390.84 503.13 390.76 496.13 391.10 489.19 C 393.27 486.36 396.95 485.01 399.10 482.08 C 406.26 474.34 409.76 461.21 402.70 452.30 C 396.38 445.39 387.49 441.30 378.80 438.19 C 372.48 437.19 366.56 434.68 360.27 433.58 C 342.78 428.24 324.41 424.34 308.98 414.00 C 300.31 408.90 293.44 401.16 288.82 392.28 C 284.08 382.38 282.34 370.64 286.15 360.15 C 288.21 353.06 292.23 346.65 297.36 341.38 C 300.39 338.33 303.60 335.18 307.73 333.71 Z"
    />
    <path
      fill="#15b8a5"
      opacity="1.00"
      d=" M 600.58 352.59 C 601.46 349.89 602.10 345.40 605.94 345.97 C 624.92 346.32 643.91 346.04 662.89 346.15 C 664.00 346.18 664.81 346.71 665.34 347.74 C 670.38 362.56 676.46 377.07 681.04 392.04 C 688.47 412.32 695.83 432.65 703.09 453.00 C 704.86 456.47 705.09 460.46 706.98 463.88 C 710.07 473.54 713.99 482.91 717.43 492.46 C 721.76 505.42 726.94 518.09 730.97 531.14 C 735.94 544.13 740.68 557.23 745.58 570.25 C 747.66 577.77 752.05 584.71 752.76 592.54 C 744.85 592.92 736.93 591.99 729.03 592.57 C 720.34 592.72 711.64 592.40 702.96 592.87 C 700.64 592.86 697.29 593.34 696.47 590.49 C 691.55 576.42 686.67 562.34 681.65 548.30 C 680.57 545.95 679.93 543.45 679.57 540.90 C 648.06 541.42 616.54 540.89 585.04 540.89 C 579.75 555.88 575.74 571.33 570.20 586.20 C 569.84 588.53 569.17 590.80 567.85 592.78 C 549.61 592.91 531.36 592.76 513.12 592.71 C 513.05 591.57 513.10 590.44 513.25 589.33 C 520.01 572.41 526.09 555.23 532.23 538.11 C 539.94 516.36 548.49 494.93 556.10 473.17 C 563.80 452.13 571.72 431.17 579.19 410.06 C 583.60 397.56 588.77 385.34 593.02 372.78 C 595.57 366.06 597.89 359.26 600.58 352.59 M 629.47 415.57 C 626.50 423.82 623.50 432.05 620.58 440.32 C 614.79 458.61 607.79 476.50 601.87 494.75 C 621.94 495.31 642.02 495.03 662.09 495.41 C 662.58 495.18 663.56 494.72 664.05 494.49 C 662.69 491.49 661.26 488.51 660.56 485.28 C 658.52 479.29 656.04 473.43 654.55 467.27 C 646.97 446.90 640.60 426.13 633.13 405.73 C 631.50 408.84 630.20 412.12 629.47 415.57 Z"
    />
    <path
      fill="#15b8a5"
      opacity="1.00"
      d=" M 777.27 346.14 C 778.75 345.56 780.34 345.38 781.94 345.56 C 798.32 346.28 814.74 344.95 831.10 345.82 C 831.72 351.19 831.38 356.60 831.41 361.99 C 831.39 435.33 831.53 508.67 831.38 582.01 C 831.44 585.57 831.76 589.18 830.90 592.68 C 813.07 592.59 795.22 593.05 777.40 592.59 C 776.67 588.76 776.97 584.86 776.94 581.00 C 776.95 508.00 776.91 435.00 776.95 361.99 C 776.99 356.71 776.64 351.40 777.27 346.14 Z"
    />
    <path
      fill="#15b8a5"
      opacity="1.00"
      d=" M 360.94 442.72 C 367.97 443.30 374.63 445.65 381.33 447.67 C 382.43 448.77 382.00 450.53 382.17 451.94 C 382.06 466.98 381.00 481.98 380.40 497.00 C 380.30 504.66 380.54 512.37 379.33 519.96 C 378.82 524.31 379.29 528.75 378.17 533.02 C 373.08 528.76 367.54 524.74 363.90 519.08 C 362.67 517.31 362.56 515.10 362.55 513.03 C 362.70 500.42 362.78 487.79 361.80 475.21 C 361.21 464.39 360.62 453.56 360.94 442.72 Z"
    />
    <path
      fill="#15b8a5"
      opacity="1.00"
      d=" M 338.02 486.05 C 342.52 481.43 346.87 476.22 353.02 473.76 C 354.73 479.71 353.53 485.97 353.86 492.06 C 354.20 496.86 350.69 500.69 350.15 505.32 C 348.96 510.31 349.63 515.98 352.88 520.08 C 356.21 524.71 360.77 528.23 364.99 532.00 C 374.29 539.65 386.21 544.68 392.91 555.13 C 399.45 565.29 399.22 578.98 393.37 589.40 C 391.68 592.22 389.98 595.33 386.90 596.86 C 386.08 593.63 386.66 590.26 386.22 586.99 C 385.64 574.96 377.31 564.48 366.92 559.00 C 357.46 552.86 346.50 548.72 338.66 540.33 C 333.67 534.47 330.15 527.41 328.25 519.97 C 327.81 515.02 327.84 509.98 328.30 505.03 C 330.18 498.13 333.58 491.65 338.02 486.05 Z"
    />
    <path
      fill="#15b8a5"
      opacity="1.00"
      d=" M 362.28 564.91 C 366.18 565.68 369.15 568.46 372.24 570.76 C 374.43 572.76 377.17 574.34 378.66 576.99 C 378.69 586.24 377.78 595.46 376.74 604.65 C 375.95 607.89 376.26 612.05 373.17 614.16 C 371.49 615.65 368.55 615.76 367.25 613.72 C 363.87 609.26 362.74 603.52 362.79 598.03 C 362.73 586.99 362.40 575.95 362.28 564.91 Z"
    />
    <path
      fill="#15b8a5"
      opacity="1.00"
      d=" M 604.46 629.43 C 610.35 624.38 615.69 618.67 621.94 614.07 C 630.42 620.13 637.64 627.73 645.70 634.32 C 652.34 639.76 658.28 646.00 664.88 651.49 C 669.46 650.45 674.23 650.52 678.85 651.21 C 683.23 652.65 686.75 655.83 690.16 658.82 C 726.66 691.63 762.86 724.75 798.59 758.41 C 805.05 764.60 812.20 770.37 816.99 778.03 C 818.88 782.14 821.16 786.32 821.23 790.97 C 821.43 797.64 821.93 804.65 819.11 810.91 C 815.82 821.22 807.45 829.25 798.03 834.18 C 794.54 836.33 790.30 836.38 786.48 837.63 C 778.83 839.70 771.08 837.42 763.77 835.22 C 752.81 829.80 745.10 819.86 736.60 811.39 C 718.17 793.14 700.73 773.94 682.58 755.43 C 672.25 744.41 661.67 733.65 651.40 722.57 C 645.09 715.56 637.82 709.24 633.04 701.01 C 631.96 697.77 631.08 694.41 630.86 690.99 C 630.61 688.19 631.57 684.96 629.38 682.72 C 617.99 669.35 606.93 655.72 595.67 642.24 C 594.49 641.03 594.10 638.85 595.55 637.68 C 598.41 634.82 601.42 632.10 604.46 629.43 Z"
    />
  </g>
</svg>

